<?xml version="1.0" ?><!DOCTYPE svg  PUBLIC '-//W3C//DTD SVG 1.1//EN'  'http://www.w3.org/Graphics/SVG/1.1/DTD/svg11.dtd'><svg enable-background="new 0 0 128 128" id="Слой_1" version="1.1" viewBox="0 0 128 128" xml:space="preserve" xmlns="http://www.w3.org/2000/svg" xmlns:xlink="http://www.w3.org/1999/xlink"><g><g><g><g><path d="M37.7,113.7c-1,0-1.9-0.1-2.9-0.4l-27.3-7.8c-2.3-0.7-4-2.8-4-5.3V30.6c0-3,2.5-5.5,5.5-5.5      c0.5,0,1,0.1,1.5,0.2l24.6,7c0.8,0.2,1.7,0.4,2.6,0.4c1.7,0,3.3-0.4,4.7-1.2l27.7-15.8c1.6-0.9,3.4-1.4,5.2-1.4      c1,0,1.9,0.1,2.9,0.4l27.3,7.8c2.3,0.7,4,2.8,4,5.3v69.6c0,3-2.5,5.5-5.5,5.5c-0.5,0-1-0.1-1.5-0.2l-24.6-7      c-0.8-0.2-1.7-0.4-2.6-0.4c-1.7,0-3.3,0.4-4.7,1.2l-27.7,15.8C41.3,113.2,39.5,113.7,37.7,113.7z" fill="#E0DAA0"/></g><g><path d="M82.3,95.3c-1.2,0-2.3,0.2-3.4,0.6l23.6,6.7c0.5,0.1,1,0.2,1.5,0.2c1.1,0,2.2-0.3,3-0.9l-22.1-6.3      C84.1,95.4,83.2,95.3,82.3,95.3z" fill="#8AA780"/><path d="M10.5,100.2V30.6c0-1.9,1-3.6,2.5-4.6l-2.5-0.7c-0.5-0.1-1-0.2-1.5-0.2c-3,0-5.5,2.5-5.5,5.5v69.6      c0,2.4,1.6,4.6,4,5.3l27.3,7.8c0.9,0.3,1.9,0.4,2.9,0.4c1.2,0,2.3-0.2,3.4-0.6l-26.6-7.6C12.1,104.8,10.5,102.7,10.5,100.2z" fill="#FFFFFF"/></g><circle cx="18.7" cy="43" fill="#F37865" r="5"/><path d="M74,47.7c-0.8,0-1.5,0.7-1.5,1.5v16.7c0,0.8,0.7,1.5,1.5,1.5s1.5-0.7,1.5-1.5V49.2     C75.5,48.3,74.8,47.7,74,47.7z" fill="#62355C"/><path d="M18.7,36.5c-3.6,0-6.5,2.9-6.5,6.5s2.9,6.5,6.5,6.5s6.5-2.9,6.5-6.5S22.3,36.5,18.7,36.5z M18.7,46.5     c-1.9,0-3.5-1.6-3.5-3.5s1.6-3.5,3.5-3.5s3.5,1.6,3.5,3.5S20.6,46.5,18.7,46.5z" fill="#62355C"/><circle cx="99" cy="89" fill="#95D6DD" r="25"/><g><path d="M81,89c0-12.6,9.3-23,21.5-24.8c-1.1-0.2-2.3-0.2-3.5-0.2c-13.8,0-25,11.2-25,25s11.2,25,25,25      c1.2,0,2.4-0.1,3.5-0.2C90.4,112,81,101.6,81,89z" fill="#FFFFFF"/></g><g><path d="M91.9,97.6c-0.4,0-0.8-0.1-1.1-0.4c-0.6-0.6-0.6-1.5,0-2.1L105,80.9c0.6-0.6,1.5-0.6,2.1,0      c0.6,0.6,0.6,1.5,0,2.1L93,97.1C92.7,97.4,92.3,97.6,91.9,97.6z" fill="#62355C"/></g></g><g><path d="M39,114.5c-0.8,0-1.5-0.7-1.5-1.5V94c0-0.8,0.7-1.5,1.5-1.5s1.5,0.7,1.5,1.5v19     C40.5,113.8,39.8,114.5,39,114.5z" fill="#62355C"/></g><g><path d="M39,65.5c-0.8,0-1.5-0.7-1.5-1.5V34c0-0.8,0.7-1.5,1.5-1.5s1.5,0.7,1.5,1.5v30     C40.5,64.8,39.8,65.5,39,65.5z" fill="#62355C"/></g><path d="M110.5,65.1V27.8c0-2.9-1.9-5.5-4.7-6.2l-27.3-7.8c-3-0.8-6.2-0.4-8.9,1.1L41.9,30.6    c-2,1.1-4.4,1.4-6.6,0.8l-24.6-7c-0.6-0.2-1.2-0.3-1.8-0.3c-3.6,0-6.5,2.9-6.5,6.5v69.6c0,2.9,1.9,5.5,4.7,6.2l27.3,7.8    c1,0.3,2.1,0.4,3.2,0.4c2,0,4-0.5,5.7-1.5l27.7-15.8c0.8-0.4,1.6-0.7,2.5-0.9c3.2,11,13.4,19,25.4,19c14.6,0,26.5-11.9,26.5-26.5    C125.5,78.5,119.4,69.4,110.5,65.1z M69.6,94.8l-27.7,15.8c-2,1.1-4.4,1.4-6.6,0.8L8,103.6c-1.5-0.4-2.5-1.8-2.5-3.4V30.6    c0-1.9,1.6-3.5,3.5-3.5c0.3,0,0.7,0,1,0.1l24.6,7c3,0.8,6.2,0.4,8.9-1.1l27.7-15.8c0.5-0.3,0.9-0.5,1.4-0.6v8.4    c0,0.8,0.7,1.5,1.5,1.5s1.5-0.7,1.5-1.5v-8.9c0.7,0,1.4,0.1,2.1,0.3l27.3,7.8c1.5,0.4,2.5,1.8,2.5,3.4v36.1    c-2.7-0.9-5.5-1.4-8.5-1.4c-14.6,0-26.5,11.9-26.5,26.5c0,1.6,0.1,3.1,0.4,4.6C71.7,93.8,70.6,94.2,69.6,94.8z M99,112.5    c-13,0-23.5-10.5-23.5-23.5S86,65.5,99,65.5S122.5,76,122.5,89S112,112.5,99,112.5z" fill="#62355C"/></g><g><path d="M39.2,84.6c0,0-0.1,0-0.1,0c-2.2-0.2-4.2-1.5-5.2-3.5c-0.4-0.7-0.1-1.6,0.6-2c0.7-0.4,1.6-0.1,2,0.6    c0.6,1.1,1.6,1.8,2.8,1.9c0.8,0.1,1.4,0.8,1.4,1.6C40.6,84,39.9,84.6,39.2,84.6z M46.2,78.4c-0.3,0-0.5-0.1-0.8-0.2    c-0.7-0.4-0.9-1.3-0.5-2.1l2.6-4.3c0.4-0.7,1.3-0.9,2.1-0.5c0.7,0.4,0.9,1.3,0.5,2.1l-2.6,4.3C47.2,78.2,46.7,78.4,46.2,78.4z     M31.2,72.8c-0.6,0-1.1-0.3-1.4-0.9l-2-4.6c-0.3-0.8,0-1.6,0.8-2c0.8-0.3,1.6,0,2,0.8l2,4.6c0.3,0.8,0,1.6-0.8,2    C31.6,72.7,31.4,72.8,31.2,72.8z M53.8,65.5c-0.3,0-0.5-0.1-0.8-0.2c-0.7-0.4-0.9-1.3-0.5-2.1l2.6-4.3c0.4-0.7,1.3-0.9,2.1-0.5    c0.7,0.4,0.9,1.3,0.5,2.1l-2.6,4.3C54.8,65.3,54.3,65.5,53.8,65.5z M86.5,61.1c-0.6,0-1.1-0.3-1.4-0.9L84,57.5    c-0.3-0.8,0-1.6,0.8-2c0.8-0.3,1.6,0,2,0.8l1.1,2.7c0.3,0.8,0,1.6-0.8,2C86.9,61,86.7,61.1,86.5,61.1z M25.1,59    c-0.6,0-1.1-0.3-1.4-0.9l-2-4.6c-0.3-0.8,0-1.6,0.8-2c0.8-0.3,1.6,0,2,0.8l2,4.6c0.3,0.8,0,1.6-0.8,2C25.5,59,25.3,59,25.1,59z     M61.5,52.6c-0.3,0-0.5-0.1-0.8-0.2c-0.7-0.4-0.9-1.3-0.5-2.1l2.6-4.3c0.4-0.7,1.3-0.9,2.1-0.5c0.7,0.4,0.9,1.3,0.5,2.1l-2.6,4.3    C62.5,52.4,62,52.6,61.5,52.6z M81.5,49.2c-0.6,0-1.1-0.3-1.4-0.9l-2-4.6c-0.3-0.8,0-1.6,0.8-2c0.8-0.3,1.6,0,2,0.8l2,4.6    c0.3,0.8,0,1.6-0.8,2C81.9,49.1,81.7,49.2,81.5,49.2z M69.1,39.7c-0.3,0-0.6-0.1-0.8-0.3c-0.7-0.5-0.9-1.4-0.4-2.1    c1.2-1.8,3.2-2.8,5.4-2.8l0.2,0c0.8,0,1.5,0.7,1.5,1.5c0,0.8-0.7,1.5-1.5,1.5l-0.1,0c-1.2,0-2.2,0.6-2.9,1.5    C70.1,39.5,69.6,39.7,69.1,39.7z" fill="#FFFFFF"/></g></g></svg>